<?xml version="1.0" encoding="UTF-8"?>
<!DOCTYPE svg PUBLIC "-//W3C//DTD SVG 1.1//EN" "http://www.w3.org/Graphics/SVG/1.1/DTD/svg11.dtd">
<!-- Creator: CorelDRAW X7 -->
<svg xmlns="http://www.w3.org/2000/svg" xml:space="preserve" width="2.47875in" height="2.73334in" version="1.1" style="shape-rendering:geometricPrecision; text-rendering:geometricPrecision; image-rendering:optimizeQuality; fill-rule:evenodd; clip-rule:evenodd"
viewBox="0 0 2479 2733"
 xmlns:xlink="http://www.w3.org/1999/xlink">
 <defs>
  <style type="text/css">
   <![CDATA[
    .fil0 {fill:#F7F7F7;fill-rule:nonzero}
   ]]>
  </style>
 </defs>
 <g id="Layer_x0020_1">
  <metadata id="CorelCorpID_0Corel-Layer"/>
  <g id="_748739624">
   <path class="fil0" d="M2460 0c-187,1710 -317,1761 -1107,2075 -324,128 -759,301 -1353,647l6 11 12 0c588,-342 1019,-513 1341,-640 799,-317 932,-370 1120,-2084l0 -9 -19 0z"/>
   <path class="fil0" d="M2479 551c-165,1250 -342,1321 -1051,1602 -303,120 -702,278 -1236,580l38 0c518,-290 907,-444 1203,-562 692,-274 885,-351 1046,-1478l0 -142z"/>
   <path class="fil0" d="M2479 1107c-153,798 -371,885 -977,1125 -275,109 -630,250 -1094,501l39 0c448,-240 792,-377 1061,-483 590,-234 817,-324 971,-1046l0 -97z"/>
   <path class="fil0" d="M2479 1500c-153,513 -388,606 -902,810 -246,98 -554,220 -946,423l41 0c375,-193 673,-310 910,-405 503,-199 742,-294 897,-762l0 -66z"/>
   <path class="fil0" d="M2479 1782c-155,340 -390,433 -828,607 -212,84 -471,187 -790,344l42 0c303,-147 550,-245 754,-326 428,-170 665,-264 822,-579l0 -46z"/>
   <path class="fil0" d="M2479 1997c-155,233 -380,323 -753,471 -175,69 -381,151 -627,265l44 0c229,-105 423,-182 588,-247 366,-145 592,-235 748,-454l0 -35z"/>
   <path class="fil0" d="M2479 2171c-151,166 -362,250 -679,375 -132,53 -282,112 -453,187l47 0c154,-67 291,-121 412,-169 311,-123 521,-206 673,-363l0 -30z"/>
   <path class="fil0" d="M2479 2322c-144,120 -336,197 -604,303 -83,33 -172,68 -269,108l49 0c80,-33 155,-62 225,-90 263,-104 454,-180 599,-296l0 -25z"/>
   <path class="fil0" d="M2479 2456c-135,91 -306,159 -530,248 -24,9 -49,19 -75,29l51 0 30 -12c220,-87 390,-154 524,-242l0 -23z"/>
   <path class="fil0" d="M2479 2581c-94,53 -203,100 -333,152l50 0c108,-44 201,-85 283,-130l0 -22z"/>
   <path class="fil0" d="M2479 2699c-23,12 -48,23 -73,34l45 0c10,-4 19,-8 28,-13l0 -21z"/>
  </g>
 </g>
</svg>
