<?xml version="1.0" encoding="UTF-8"?>
<!DOCTYPE svg PUBLIC "-//W3C//DTD SVG 1.1//EN" "http://www.w3.org/Graphics/SVG/1.1/DTD/svg11.dtd">
<!-- Creator: CorelDRAW X7 -->
<svg xmlns="http://www.w3.org/2000/svg" xml:space="preserve" width="0.114866in" height="0.131417in" version="1.1" style="shape-rendering:geometricPrecision; text-rendering:geometricPrecision; image-rendering:optimizeQuality; fill-rule:evenodd; clip-rule:evenodd"
viewBox="0 0 115 131"
 xmlns:xlink="http://www.w3.org/1999/xlink">
 <defs>
  <style type="text/css">
   <![CDATA[
    .fil0 {fill:#25CD59}
    .fil1 {fill:white}
   ]]>
  </style>
 </defs>
 <g id="Layer_x0020_1">
  <metadata id="CorelCorpID_0Corel-Layer"/>
  <g id="_518379872">
   <path class="fil0" d="M87 98c-1,1 -26,8 -29,9 -3,0 -25,-7 -30,-8 -2,-4 -2,-18 -2,-24l14 0c0,2 1,12 2,13 3,0 14,3 16,3 2,0 14,-3 16,-4l2 -20 -51 0 -2 -13 54 -1 1 -15 -56 0 -1 -14 73 0 -7 74zm17 21c1,-2 11,-112 11,-119l-115 0c0,11 9,100 10,114 1,7 4,6 20,10 33,10 22,9 50,2 5,-2 21,-5 24,-7z"/>
   <path class="fil1" d="M94 24l-73 0 1 14 56 0 -1 15 -54 1 2 13 51 0 -2 20c-2,1 -14,4 -16,4 -2,0 -13,-3 -16,-3 -1,-1 -2,-11 -2,-13l-14 0c0,6 0,20 2,24 5,1 27,8 30,8 3,-1 28,-8 29,-9l7 -74z"/>
  </g>
 </g>
</svg>
