<?xml version="1.0" encoding="UTF-8"?>
<!DOCTYPE svg PUBLIC "-//W3C//DTD SVG 1.1//EN" "http://www.w3.org/Graphics/SVG/1.1/DTD/svg11.dtd">
<!-- Creator: CorelDRAW 2019 (64-Bit) -->
<svg xmlns="http://www.w3.org/2000/svg" xml:space="preserve" width="3.57166in" height="1.52097in" version="1.1" style="shape-rendering:geometricPrecision; text-rendering:geometricPrecision; image-rendering:optimizeQuality; fill-rule:evenodd; clip-rule:evenodd"
viewBox="0 0 3571.65 1520.97"
 xmlns:xlink="http://www.w3.org/1999/xlink"
 xmlns:xodm="http://www.corel.com/coreldraw/odm/2003">
 <defs>
  <style type="text/css">
   <![CDATA[
    .fil2 {fill:none}
    .fil0 {fill:#29CB5B}
    .fil3 {fill:#333333;fill-rule:nonzero}
    .fil1 {fill:black;fill-opacity:0.101961}
   ]]>
  </style>
     <clipPath id="id0">
      <path d="M802.42 0.05l329.34 191.61 329.34 191.61 0 377.24 0 383.22 -329.34 185.62 -329.34 191.61 -329.34 -191.61 -329.34 -185.62 0 -383.22 0 -191.61 598.8 0 233.54 401.2 -365.28 0 0 -335.33 -149.7 0 0 485.03 622.76 -11.98 0 0c17.97,0 35.92,-5.99 47.9,-11.98 47.9,-29.95 53.89,-53.89 29.95,-101.81l-305.4 -550.9c-17.97,-35.92 -47.9,-59.88 -89.83,-59.88l-766.48 -11.98 802.39 -371.27 0.02 0.05z"/>
     </clipPath>
 </defs>
 <g id="Layer_x0020_1">
  <metadata id="CorelCorpID_0Corel-Layer"/>
  <g id="_2231123895456">
   <g id="_508050072">
    <path class="fil0" d="M802.42 0.05l329.34 191.61 329.34 191.61 0 377.24 0 383.22 -329.34 185.62 -329.34 191.61 -329.34 -191.61 -329.34 -185.62 0 -383.22 0 -191.61 598.8 0 233.54 401.2 -365.28 0 0 -335.33 -149.7 0 0 485.03 622.76 -11.98 0 0c17.97,0 35.92,-5.99 47.9,-11.98 47.9,-29.95 53.89,-53.89 29.95,-101.81l-305.4 -550.9c-17.97,-35.92 -47.9,-59.88 -89.83,-59.88l-766.48 -11.98 802.39 -371.27 0.02 0.05z"/>
    <g>
    </g>
    <g style="clip-path:url(#id0)">
     <g>
      <polygon id="_1" class="fil1" points="1113.81,1041.98 461.1,1119.82 970.09,1425.2 1461.12,1143.76 1461.12,844.37 820.38,401.24 "/>
     </g>
    </g>
    <path class="fil2" d="M802.42 0.05l329.34 191.61 329.34 191.61 0 377.24 0 383.22 -329.34 185.62 -329.34 191.61 -329.34 -191.61 -329.34 -185.62 0 -383.22 0 -191.61 598.8 0 233.54 401.2 -365.28 0 0 -335.33 -149.7 0 0 485.03 622.76 -11.98 0 0c17.97,0 35.92,-5.99 47.9,-11.98 47.9,-29.95 53.89,-53.89 29.95,-101.81l-305.4 -550.9c-17.97,-35.92 -47.9,-59.88 -89.83,-59.88l-766.48 -11.98 802.39 -371.27 0.02 0.05z"/>
    <path class="fil2" d="M802.42 0.05l329.34 191.61 329.34 191.61 0 377.24 0 383.22 -329.34 185.62 -329.34 191.61 -329.34 -191.61 -329.34 -185.62 0 -383.22 0 -191.61 598.8 0 233.54 401.2 -365.28 0 0 -335.33 -149.7 0 0 485.03 622.76 -11.98 0 0c17.97,0 35.92,-5.99 47.9,-11.98 47.9,-29.95 53.89,-53.89 29.95,-101.81l-305.4 -550.9c-17.97,-35.92 -47.9,-59.88 -89.83,-59.88l-766.48 -11.98 802.39 -371.27 0.02 0.05z"/>
    <g>
     <path class="fil3" d="M2525.54 459.3c24.11,0 44.42,14.81 44.42,40.61l-90.53 0c4.23,-26.23 22.42,-40.61 46.11,-40.61zm112.95 103.22l-76.99 0c-5.92,12.69 -17.35,22.84 -37.65,22.84 -23.27,0 -42.3,-14.38 -44.84,-45.26l163.71 0c0.85,-7.19 1.27,-14.38 1.27,-21.15 0,-71.91 -48.65,-117.6 -117.61,-117.6 -70.22,0 -119.29,46.54 -119.29,121.41 0,74.88 49.92,121.41 119.29,121.41 58.8,0 100.68,-35.54 112.11,-81.65z"/>
     <polygon id="1" class="fil3" points="2659.64,404.73 2743.4,640.78 2832.66,640.78 2916.42,404.73 2839.43,404.73 2788.24,573.09 2737.05,404.73 "/>
     <path class="fil3" d="M2407.09 827.71c0,74.45 46.11,121.83 103.64,121.83 35.11,0 60.07,-16.07 73.18,-36.81l0 33.42 72.34 0 0 -236.05 -72.34 0 0 33.42c-12.69,-20.73 -37.65,-36.8 -72.76,-36.8 -57.95,0 -104.06,46.54 -104.06,120.99zm176.83 0.42c0,37.65 -24.11,58.38 -51.61,58.38 -27.07,0 -51.61,-21.15 -51.61,-58.8 0,-37.65 24.54,-57.96 51.61,-57.96 27.5,0 51.61,20.73 51.61,58.38z"/>
     <polygon id="1" class="fil3" points="2748.48,946.16 2828.01,946.16 2866.5,793.02 2903.73,946.16 2983.68,946.16 3047.56,710.11 2979.45,710.11 2946.46,878.05 2906.27,710.11 2829.7,710.11 2789.93,878.89 2756.52,710.11 2684.18,710.11 "/>
     <path id="2" class="fil3" d="M3060.68 827.71c0,74.45 46.11,121.83 104.06,121.83 34.69,0 59.65,-16.5 72.76,-37.23l0 33.42c0,39.76 -21.57,54.15 -49.07,54.15 -24.96,0 -42.72,-11.42 -47.38,-29.19l-71.49 0c6.35,56.26 52.03,91.8 122.26,91.8 81.65,0 118.03,-53.72 118.03,-116.76l0 -235.63 -72.34 0 0 33.42c-12.69,-21.15 -38.07,-36.8 -72.76,-36.8 -57.95,0 -104.06,46.54 -104.06,120.99zm176.83 0.42c0,37.65 -24.11,58.38 -51.61,58.38 -27.07,0 -51.61,-21.15 -51.61,-58.8 0,-37.65 24.54,-57.96 51.61,-57.96 27.5,0 51.61,20.73 51.61,58.38z"/>
     <path id="3" class="fil3" d="M3553.93 877.63c-1.27,-87.99 -129.03,-61.34 -129.03,-98.99 0,-11.42 9.31,-18.19 26.23,-18.19 20.31,0 32.57,10.58 34.69,26.65l66.84 0c-4.65,-46.54 -38.5,-80.38 -99.41,-80.38 -61.76,0 -96.03,33 -96.03,73.18 0,86.72 128.6,59.22 128.6,97.3 0,10.57 -9.73,19.04 -28.34,19.04 -19.88,0 -34.69,-11 -36.38,-27.5l-71.49 0c3.39,45.68 45.69,80.8 108.72,80.8 59.22,0 95.61,-30.88 95.61,-71.92z"/>
     <path class="fil3" d="M1913.69 276.89l-245.65 0 0 789.03 245.65 0c259.24,0 418.85,-148.3 418.85,-392.81 0,-244.52 -159.62,-396.21 -418.85,-396.21zm-142.64 704.13l0 -620.36 142.64 0c206.03,0 313.57,120 313.57,312.44 0,192.44 -107.54,307.91 -313.57,307.91l-142.64 0z"/>
     <polygon class="fil3" points="3409.65,620.29 3423.78,620.29 3423.78,664.74 3434.42,664.74 3434.42,620.29 3448.56,620.29 3448.56,611.7 3409.65,611.7 "/>
     <polygon id="1" class="fil3" points="3456.31,664.74 3466.94,664.74 3466.94,630.24 3481.23,664.74 3489.28,664.74 3503.49,630.24 3503.49,664.74 3514.13,664.74 3514.13,611.7 3502.13,611.7 3485.26,651.14 3468.39,611.7 3456.31,611.7 "/>
     <path class="fil3" d="M1713.08 1186.78l-14.96 24.22 12.62 0 10.48 -24.22 -8.15 0zm18.32 0l-14.96 24.22 12.62 0 10.48 -24.22 -8.14 0z"/>
     <path class="fil3" d="M1788.08 1250.81c0.71,-4.17 -1.94,-7.43 -6.01,-7.43 -4.17,0 -8.04,3.26 -8.75,7.43 -0.71,4.17 1.93,7.43 6.11,7.43 4.07,0 7.94,-3.26 8.65,-7.43z"/>
     <path class="fil3" d="M1847.93 1250.81c0.71,-4.17 -1.94,-7.43 -6.01,-7.43 -4.17,0 -8.04,3.26 -8.75,7.43 -0.71,4.17 1.93,7.43 6.11,7.43 4.07,0 7.94,-3.26 8.65,-7.43z"/>
     <path class="fil3" d="M1913.8 1250.81c0.71,-4.17 -1.94,-7.43 -6.01,-7.43 -4.17,0 -8.04,3.26 -8.75,7.43 -0.71,4.17 1.93,7.43 6.11,7.43 4.07,0 7.94,-3.26 8.65,-7.43z"/>
     <path class="fil3" d="M1961.57 1229.43c-3.15,17.61 6.31,29.01 22.39,29.01 13.74,0 24.02,-7.63 29.11,-18.63l-12.52 0c-3.16,5.8 -7.94,8.85 -14.86,8.85 -9.36,0 -14.35,-6.92 -12.21,-19.24 2.14,-12.22 9.57,-19.14 18.93,-19.14 6.92,0 10.79,3.46 11.81,8.85l12.52 0c-1.12,-11.81 -8.85,-18.63 -22.59,-18.63 -16.08,0 -29.52,11.4 -32.57,28.91z"/>
     <path class="fil3" d="M2079.83 1257.52l5.29 -29.93c2.04,-11.5 7.94,-15.06 16.49,-15.06l2.95 0 2.14 -12.01c-8.04,0 -14.35,4.28 -18.73,10.79l1.73 -9.87 -11.61 0 -9.87 56.08 11.6 0z"/>
     <path class="fil3" d="M2184.02 1210.29c8.65,0 14.56,5.5 13.13,14.76l-31.15 0c2.55,-9.26 9.98,-14.76 18.02,-14.76zm20.87 30.54l-12.52 0c-2.85,4.38 -7.43,7.84 -14.56,7.84 -8.65,0 -14.45,-5.8 -13.33,-15.27l42.85 0c0.61,-1.93 1.12,-3.77 1.43,-5.5 2.85,-16.29 -6.52,-27.38 -22.5,-27.38 -16.59,0 -29.93,11.3 -33.08,28.91 -3.15,17.61 6.82,29.01 22.9,29.01 13.74,0 23.92,-7.84 28.8,-17.61z"/>
     <path class="fil3" d="M2260.98 1229.23c-3.06,17.3 6.61,29.21 21.17,29.21 9.37,0 16.9,-4.48 21.28,-9.26l-1.53 8.35 11.7 0 9.87 -56.08 -11.7 0 -1.43 8.14c-2.65,-4.58 -8.35,-9.06 -17.81,-9.06 -14.76,0 -28.5,11.4 -31.55,28.7zm45.91 0.2c-2.14,12.11 -11.61,18.93 -20.36,18.93 -8.65,0 -15.78,-7.02 -13.64,-19.13 2.14,-12.11 11.7,-18.63 20.35,-18.63 8.76,0 15.78,6.82 13.64,18.83z"/>
     <path class="fil3" d="M2378.21 1241.95c-1.93,11.4 3.46,15.57 13.44,15.57l9.16 0 1.73 -9.67 -7.13 0c-4.89,0 -6.21,-1.73 -5.5,-5.91l5.5 -31.04 13.64 0 1.63 -9.46 -13.54 0 2.44 -13.94 -11.7 0 -2.44 13.94 -6.72 0 -1.63 9.46 6.61 0 -5.5 31.04z"/>
     <path class="fil3" d="M2451.47 1257.52l11.6 0 9.87 -56.08 -11.61 0 -9.87 56.08zm17.1 -63.51c4.07,0 7.94,-3.26 8.65,-7.43 0.71,-4.17 -1.93,-7.43 -6,-7.43 -4.17,0 -8.04,3.26 -8.75,7.43 -0.71,4.17 1.93,7.43 6.11,7.43z"/>
     <polygon class="fil3" points="2526.59,1201.44 2537.99,1257.52 2552.03,1257.52 2583.28,1201.44 2570.76,1201.44 2546.84,1247.14 2539.01,1201.44 "/>
     <path class="fil3" d="M2657.07 1210.29c8.65,0 14.56,5.5 13.13,14.76l-31.15 0c2.55,-9.26 9.98,-14.76 18.02,-14.76zm20.87 30.54l-12.52 0c-2.85,4.38 -7.43,7.84 -14.56,7.84 -8.65,0 -14.45,-5.8 -13.33,-15.27l42.85 0c0.61,-1.93 1.12,-3.77 1.43,-5.5 2.85,-16.29 -6.52,-27.38 -22.5,-27.38 -16.59,0 -29.93,11.3 -33.08,28.91 -3.15,17.61 6.82,29.01 22.9,29.01 13.74,0 23.92,-7.84 28.8,-17.61z"/>
     <polygon class="fil3" points="2763.77,1225.56 2805.6,1225.56 2807.34,1215.79 2765.5,1215.79 "/>
     <path class="fil3" d="M2872.06 1257.52l11.7 0 8.24 -46.62 10.38 0 1.63 -9.46 -10.38 0 0.71 -3.97c1.12,-6.41 4.07,-8.85 11.2,-8.85l1.63 -9.67c-14.66,0 -22.19,5.6 -24.53,18.53l-0.71 3.97 -6.61 0 -1.63 9.46 6.62 0 -8.24 46.62z"/>
     <path class="fil3" d="M2966.06 1257.52l5.29 -29.93c2.04,-11.5 7.94,-15.06 16.49,-15.06l2.95 0 2.14 -12.01c-8.04,0 -14.35,4.28 -18.73,10.79l1.73 -9.87 -11.61 0 -9.87 56.08 11.6 0z"/>
     <path class="fil3" d="M3070.25 1210.29c8.65,0 14.56,5.5 13.13,14.76l-31.15 0c2.55,-9.26 9.98,-14.76 18.02,-14.76zm20.87 30.54l-12.52 0c-2.85,4.38 -7.43,7.84 -14.56,7.84 -8.65,0 -14.45,-5.8 -13.33,-15.27l42.85 0c0.61,-1.93 1.12,-3.77 1.43,-5.5 2.85,-16.29 -6.52,-27.38 -22.5,-27.38 -16.59,0 -29.93,11.3 -33.08,28.91 -3.15,17.61 6.82,29.01 22.9,29.01 13.74,0 23.92,-7.84 28.8,-17.61z"/>
     <path class="fil3" d="M3141.22 1229.23c-3.06,17.3 6.61,29.21 21.17,29.21 9.37,0 16.9,-4.48 21.28,-9.26l-1.53 8.35 11.7 0 9.87 -56.08 -11.7 0 -1.43 8.14c-2.65,-4.58 -8.35,-9.06 -17.81,-9.06 -14.76,0 -28.5,11.4 -31.55,28.7zm45.91 0.2c-2.14,12.11 -11.61,18.93 -20.36,18.93 -8.65,0 -15.78,-7.02 -13.64,-19.13 2.14,-12.11 11.7,-18.63 20.35,-18.63 8.76,0 15.78,6.82 13.64,18.83z"/>
     <polygon class="fil3" points="3253.87,1257.52 3265.47,1257.52 3269.74,1233.4 3286.23,1257.52 3301.91,1257.52 3280.94,1229.53 3311.78,1201.44 3295.7,1201.44 3271.07,1225.87 3278.8,1182.2 3267.2,1182.2 "/>
     <polygon class="fil3" points="3395.28,1201.44 3356.4,1201.44 3354.77,1210.9 3380.32,1210.9 3348.26,1248.06 3346.53,1257.52 3385.41,1257.52 3387.14,1248.06 3361.69,1248.06 3393.65,1210.9 "/>
     <polygon class="fil3" points="3485.09,1201.44 3446.2,1201.44 3444.57,1210.9 3470.12,1210.9 3438.06,1248.06 3436.33,1257.52 3475.21,1257.52 3476.94,1248.06 3451.5,1248.06 3483.46,1210.9 "/>
     <path class="fil3" d="M3556.69 1211.01l14.96 -24.22 -12.62 0 -10.48 24.22 8.14 0zm-18.32 0l14.96 -24.22 -12.62 0 -10.48 24.22 8.15 0z"/>
    </g>
   </g>
  </g>
 </g>
</svg>
