<?xml version="1.0" encoding="UTF-8"?>
<!DOCTYPE svg PUBLIC "-//W3C//DTD SVG 1.1//EN" "http://www.w3.org/Graphics/SVG/1.1/DTD/svg11.dtd">
<!-- Creator: CorelDRAW X7 -->
<svg xmlns="http://www.w3.org/2000/svg" xml:space="preserve" width="0.244201in" height="0.254228in" version="1.1" style="shape-rendering:geometricPrecision; text-rendering:geometricPrecision; image-rendering:optimizeQuality; fill-rule:evenodd; clip-rule:evenodd"
viewBox="0 0 244 254"
 xmlns:xlink="http://www.w3.org/1999/xlink">
 <defs>
  <style type="text/css">
   <![CDATA[
    .fil2 {fill:none}
    .fil0 {fill:#29CB5B}
    .fil1 {fill:black;fill-opacity:0.101961}
   ]]>
  </style>
   <clipPath id="id0">
    <path d="M134 0l55 32 55 32 0 63 0 64 -55 31 -55 32 -55 -32 -55 -31 0 -64 0 -32 100 0 39 67 -61 0 0 -56 -25 0 0 81 104 -2 0 0c3,0 6,-1 8,-2 8,-5 9,-9 5,-17l-51 -92c-3,-6 -8,-10 -15,-10l-128 -2 134 -62z"/>
   </clipPath>
 </defs>
 <g id="Layer_x0020_1">
  <metadata id="CorelCorpID_0Corel-Layer"/>
  <path class="fil0" d="M134 0l55 32 55 32 0 63 0 64 -55 31 -55 32 -55 -32 -55 -31 0 -64 0 -32 100 0 39 67 -61 0 0 -56 -25 0 0 81 104 -2 0 0c3,0 6,-1 8,-2 8,-5 9,-9 5,-17l-51 -92c-3,-6 -8,-10 -15,-10l-128 -2 134 -62z"/>
  <g style="clip-path:url(#id0)">
   <g id="_508047096">
    <polygon id="1" class="fil1" points="186,174 77,187 162,238 244,191 244,141 137,67 "/>
   </g>
  </g>
  <path class="fil2" d="M134 0l55 32 55 32 0 63 0 64 -55 31 -55 32 -55 -32 -55 -31 0 -64 0 -32 100 0 39 67 -61 0 0 -56 -25 0 0 81 104 -2 0 0c3,0 6,-1 8,-2 8,-5 9,-9 5,-17l-51 -92c-3,-6 -8,-10 -15,-10l-128 -2 134 -62z"/>
 </g>
</svg>
