<?xml version="1.0" encoding="UTF-8"?>
<!DOCTYPE svg PUBLIC "-//W3C//DTD SVG 1.1//EN" "http://www.w3.org/Graphics/SVG/1.1/DTD/svg11.dtd">
<!-- Creator: CorelDRAW X7 -->
<svg xmlns="http://www.w3.org/2000/svg" xml:space="preserve" width="0.191386in" height="0.191386in" version="1.1" style="shape-rendering:geometricPrecision; text-rendering:geometricPrecision; image-rendering:optimizeQuality; fill-rule:evenodd; clip-rule:evenodd"
viewBox="0 0 191 191"
 xmlns:xlink="http://www.w3.org/1999/xlink">
 <defs>
  <style type="text/css">
   <![CDATA[
    .fil0 {fill:white}
   ]]>
  </style>
 </defs>
 <g id="Layer_x0020_1">
  <metadata id="CorelCorpID_0Corel-Layer"/>
  <path class="fil0" d="M96 0c53,0 95,43 95,96 0,53 -42,95 -95,95 -53,0 -96,-42 -96,-95 0,-53 43,-96 96,-96zm-20 96c0,0 0,0 0,2 0,24 0,49 0,72l32 0c0,-13 0,-25 0,-37l0 -37 22 0 3 -25 -25 0c0,-27 -2,-25 25,-25l0 -24c-16,0 -36,-2 -47,6 -12,9 -10,25 -10,43l-17 0 0 25 17 0z"/>
 </g>
</svg>
