<?xml version="1.0" encoding="UTF-8"?>
<!DOCTYPE svg PUBLIC "-//W3C//DTD SVG 1.1//EN" "http://www.w3.org/Graphics/SVG/1.1/DTD/svg11.dtd">
<!-- Creator: CorelDRAW X7 -->
<svg xmlns="http://www.w3.org/2000/svg" xml:space="preserve" width="2.47875in" height="2.73484in" version="1.1" style="shape-rendering:geometricPrecision; text-rendering:geometricPrecision; image-rendering:optimizeQuality; fill-rule:evenodd; clip-rule:evenodd"
viewBox="0 0 2479 2735"
 xmlns:xlink="http://www.w3.org/1999/xlink">
 <defs>
  <style type="text/css">
   <![CDATA[
    .fil0 {fill:#F7F7F7;fill-rule:nonzero}
   ]]>
  </style>
 </defs>
 <g id="Layer_x0020_1">
  <metadata id="CorelCorpID_0Corel-Layer"/>
  <g id="_517048520">
   <path class="fil0" d="M2460 0c-187,1710 -317,1761 -1107,2075 -324,128 -759,301 -1353,647l7 13 8 0c589,-343 1021,-515 1344,-642 799,-317 932,-370 1120,-2084l0 -9 -19 0z"/>
   <path class="fil0" d="M2479 551c-165,1250 -342,1321 -1051,1602 -304,120 -703,279 -1239,582l38 0c520,-292 909,-446 1206,-564 692,-274 885,-351 1046,-1478l0 -142z"/>
   <path class="fil0" d="M2479 1107c-153,798 -371,885 -977,1125 -276,109 -631,250 -1097,503l40 0c449,-242 794,-379 1063,-485 590,-234 817,-324 971,-1046l0 -97z"/>
   <path class="fil0" d="M2479 1500c-153,513 -388,606 -902,810 -246,98 -555,220 -949,425l41 0c377,-194 675,-312 913,-407 503,-199 742,-294 897,-762l0 -66z"/>
   <path class="fil0" d="M2479 1782c-155,340 -390,433 -828,607 -212,84 -472,187 -793,346l42 0c304,-149 553,-247 757,-328 428,-170 665,-264 822,-579l0 -46z"/>
   <path class="fil0" d="M2479 1997c-155,233 -380,323 -753,471 -176,69 -383,151 -630,267l44 0c231,-106 425,-184 591,-249 366,-145 592,-235 748,-454l0 -35z"/>
   <path class="fil0" d="M2479 2171c-151,166 -362,250 -679,375 -133,53 -284,113 -456,189l46 0c156,-68 294,-122 416,-171 311,-123 521,-206 673,-363l0 -30z"/>
   <path class="fil0" d="M2479 2322c-144,120 -336,197 -604,303 -84,33 -174,69 -273,110l49 0c82,-34 158,-64 229,-92 263,-104 454,-180 599,-296l0 -25z"/>
   <path class="fil0" d="M2479 2456c-135,91 -306,159 -530,248 -26,10 -52,20 -79,31l51 0 34 -14c220,-87 390,-154 524,-242l0 -23z"/>
   <path class="fil0" d="M2479 2581c-95,53 -205,101 -337,154l50 0c110,-45 204,-86 287,-132l0 -22z"/>
   <path class="fil0" d="M2479 2699c-24,12 -50,24 -76,36l45 0c10,-5 21,-10 31,-15l0 -21z"/>
  </g>
 </g>
</svg>
