<?xml version="1.0" encoding="UTF-8"?>
<!DOCTYPE svg PUBLIC "-//W3C//DTD SVG 1.1//EN" "http://www.w3.org/Graphics/SVG/1.1/DTD/svg11.dtd">
<!-- Creator: CorelDRAW X7 -->
<svg xmlns="http://www.w3.org/2000/svg" xml:space="preserve" width="0.119583in" height="0.135594in" version="1.1" style="shape-rendering:geometricPrecision; text-rendering:geometricPrecision; image-rendering:optimizeQuality; fill-rule:evenodd; clip-rule:evenodd"
viewBox="0 0 120 136"
 xmlns:xlink="http://www.w3.org/1999/xlink">
 <defs>
  <style type="text/css">
   <![CDATA[
    .fil0 {fill:#25CD59}
    .fil1 {fill:white}
   ]]>
  </style>
 </defs>
 <g id="Layer_x0020_1">
  <metadata id="CorelCorpID_0Corel-Layer"/>
  <g id="_604402840">
   <path class="fil0" d="M59 55l1 0 34 0 -4 47c-6,1 -27,7 -30,8 -4,0 -24,-7 -31,-8l-2 -24 15 0c0,4 0,9 1,12 2,0 15,4 17,4 1,0 14,-4 16,-4 2,-4 1,-12 2,-17l0 -3c-9,0 -18,0 -26,0 -3,0 -25,1 -26,0l-4 -45 75 0 -1 15 -58 0 2 15 19 0zm-48 67c1,1 46,14 48,14 2,0 48,-13 50,-14l11 -122 -120 0 11 122z"/>
   <path class="fil1" d="M78 73c-1,5 0,13 -2,17 -2,0 -15,4 -16,4 -2,0 -15,-4 -17,-4 -1,-3 -1,-8 -1,-12l-15 0 2 24c7,1 27,8 31,8 3,-1 24,-7 30,-8l4 -47 -34 0 0 15 14 0c5,0 4,0 5,1 0,2 0,-1 -1,1l0 1z"/>
   <polygon class="fil1" points="26,70 59,70 59,55 40,55 38,40 96,40 97,25 22,25 "/>
   <path class="fil1" d="M26 70c1,1 23,0 26,0 8,0 17,0 26,0l0 3 0 -1c1,-2 1,1 1,-1 -1,-1 0,-1 -5,-1l-14 0 0 -15 -1 0 0 15 -33 0z"/>
  </g>
 </g>
</svg>
