<?xml version="1.0" encoding="UTF-8"?>
<!DOCTYPE svg PUBLIC "-//W3C//DTD SVG 1.1//EN" "http://www.w3.org/Graphics/SVG/1.1/DTD/svg11.dtd">
<!-- Creator: CorelDRAW X7 -->
<svg xmlns="http://www.w3.org/2000/svg" xml:space="preserve" width="0.127874in" height="0.127874in" version="1.1" style="shape-rendering:geometricPrecision; text-rendering:geometricPrecision; image-rendering:optimizeQuality; fill-rule:evenodd; clip-rule:evenodd"
viewBox="0 0 128 128"
 xmlns:xlink="http://www.w3.org/1999/xlink">
 <defs>
  <style type="text/css">
   <![CDATA[
    .fil0 {fill:#25CD59}
    .fil1 {fill:white}
   ]]>
  </style>
 </defs>
 <g id="Layer_x0020_1">
  <metadata id="CorelCorpID_0Corel-Layer"/>
  <g id="_518373752">
   <path class="fil0" d="M58 101l0 -42c1,-1 10,-1 12,0 0,3 0,41 -1,42 1,4 -1,9 -4,12 -5,6 -16,6 -24,2 -2,-1 -3,-2 -4,-3 -1,-1 -3,-4 -3,-5l9 -6c2,3 3,6 8,6 4,0 7,-2 7,-6zm28 -1c2,4 5,7 11,7 3,0 6,-1 7,-2 2,-2 3,-5 1,-7 -4,-5 -16,-6 -22,-14 -3,-4 -4,-10 -3,-15 4,-12 21,-14 30,-7 1,1 4,4 4,6 -1,1 -8,5 -9,6 -1,-2 -3,-4 -5,-5 -7,-2 -10,4 -7,8 4,5 23,6 25,21 1,12 -6,19 -17,20 -6,0 -11,-1 -16,-3 -3,-2 -8,-6 -9,-10 3,-1 7,-4 10,-5zm-86 28l128 0 0 -128 -128 0 0 128z"/>
   <g>
    <path class="fil1" d="M86 100c-3,1 -7,4 -10,5 1,4 6,8 9,10 5,2 10,3 16,3 11,-1 18,-8 17,-20 -2,-15 -21,-16 -25,-21 -3,-4 0,-10 7,-8 2,1 4,3 5,5 1,-1 8,-5 9,-6 0,-2 -3,-5 -4,-6 -9,-7 -26,-5 -30,7 -1,5 0,11 3,15 6,8 18,9 22,14 2,2 1,5 -1,7 -1,1 -4,2 -7,2 -6,0 -9,-3 -11,-7z"/>
    <path class="fil1" d="M58 101c0,4 -3,6 -7,6 -5,0 -6,-3 -8,-6l-9 6c0,1 2,4 3,5 1,1 2,2 4,3 8,4 19,4 24,-2 3,-3 5,-8 4,-12l0 -42 -11 0c0,5 0,40 0,42z"/>
    <path class="fil1" d="M58 101c0,-2 0,-37 0,-42l11 0 0 42c1,-1 1,-39 1,-42 -2,-1 -11,-1 -12,0l0 42z"/>
   </g>
  </g>
 </g>
</svg>
