<?xml version="1.0" encoding="UTF-8"?>
<!DOCTYPE svg PUBLIC "-//W3C//DTD SVG 1.1//EN" "http://www.w3.org/Graphics/SVG/1.1/DTD/svg11.dtd">
<!-- Creator: CorelDRAW X7 -->
<svg xmlns="http://www.w3.org/2000/svg" xml:space="preserve" width="0.19139in" height="0.191386in" version="1.1" style="shape-rendering:geometricPrecision; text-rendering:geometricPrecision; image-rendering:optimizeQuality; fill-rule:evenodd; clip-rule:evenodd"
viewBox="0 0 191 191"
 xmlns:xlink="http://www.w3.org/1999/xlink">
 <defs>
  <style type="text/css">
   <![CDATA[
    .fil0 {fill:white}
   ]]>
  </style>
 </defs>
 <g id="Layer_x0020_1">
  <metadata id="CorelCorpID_0Corel-Layer"/>
  <path class="fil0" d="M96 0c53,0 95,43 95,96 0,53 -42,95 -95,95 -53,0 -96,-42 -96,-95 0,-53 43,-96 96,-96zm4 87l0 -9 -22 0 0 70 22 0c0,-11 0,-22 0,-33 0,-6 -1,-10 2,-15 6,-9 18,-7 23,0 2,4 2,9 2,15 0,11 0,22 0,33l22 0c0,-10 0,-22 0,-33 0,-10 0,-20 -5,-28 -5,-6 -11,-11 -22,-11 -12,-1 -17,5 -22,11zm-57 61l2 1 18 -1 2 0 0 -69c-3,-1 -19,-1 -22,0l0 69zm8 -105c-14,3 -10,25 6,22 13,-3 9,-25 -6,-22z"/>
 </g>
</svg>
