<?xml version="1.0" encoding="UTF-8"?>
<!DOCTYPE svg PUBLIC "-//W3C//DTD SVG 1.1//EN" "http://www.w3.org/Graphics/SVG/1.1/DTD/svg11.dtd">
<!-- Creator: CorelDRAW 2018 (64-Bit) -->
<svg xmlns="http://www.w3.org/2000/svg" xml:space="preserve" width="0.112705in" height="0.104484in" version="1.1" style="shape-rendering:geometricPrecision; text-rendering:geometricPrecision; image-rendering:optimizeQuality; fill-rule:evenodd; clip-rule:evenodd"
viewBox="0 0 112.7 104.48"
 xmlns:xlink="http://www.w3.org/1999/xlink">
 <defs>
  <style type="text/css">
   <![CDATA[
    .fil1 {fill:#00E047;fill-rule:nonzero}
    .fil0 {fill:#29CB5B;fill-rule:nonzero}
   ]]>
  </style>
 </defs>
 <g id="Layer_x0020_1">
  <metadata id="CorelCorpID_0Corel-Layer"/>
  <g id="_334865556784">
   <path class="fil0" d="M95.82 101.85l-92.52 -84.3c-4.12,-3.75 -4.41,-10.13 -0.66,-14.24 3.75,-4.12 10.13,-4.42 14.24,-0.67l92.52 84.3c4.12,3.75 4.41,10.13 0.66,14.25 -3.75,4.12 -10.13,4.41 -14.25,0.66z"/>
   <path class="fil1" d="M16.88 101.85l92.52 -84.3c4.11,-3.75 4.41,-10.13 0.66,-14.24 -3.75,-4.12 -10.13,-4.42 -14.24,-0.67l-92.52 84.3c-4.12,3.75 -4.41,10.13 -0.66,14.25 3.75,4.12 10.13,4.41 14.24,0.66z"/>
  </g>
 </g>
</svg>
