<?xml version="1.0" encoding="UTF-8"?>
<!DOCTYPE svg PUBLIC "-//W3C//DTD SVG 1.1//EN" "http://www.w3.org/Graphics/SVG/1.1/DTD/svg11.dtd">
<!-- Creator: CorelDRAW 2018 (64-Bit) -->
<svg xmlns="http://www.w3.org/2000/svg" xml:space="preserve" width="0.140736in" height="0.104484in" version="1.1" style="shape-rendering:geometricPrecision; text-rendering:geometricPrecision; image-rendering:optimizeQuality; fill-rule:evenodd; clip-rule:evenodd"
viewBox="0 0 140.73 104.48"
 xmlns:xlink="http://www.w3.org/1999/xlink">
 <defs>
  <style type="text/css">
   <![CDATA[
    .fil0 {fill:#29CB5B;fill-rule:nonzero}
   ]]>
  </style>
 </defs>
 <g id="Layer_x0020_1">
  <metadata id="CorelCorpID_0Corel-Layer"/>
  <g id="_334872194160">
   <path class="fil0" d="M130.96 16.57l-121.2 0c-5.39,0 -9.76,-3.71 -9.76,-8.28 0,-4.57 4.37,-8.29 9.76,-8.29l121.2 0c5.4,0 9.77,3.71 9.77,8.29 0,4.57 -4.37,8.28 -9.77,8.28z"/>
   <path class="fil0" d="M130.96 60.53l-121.2 0c-5.39,0 -9.76,-3.71 -9.76,-8.28 0,-4.57 4.37,-8.29 9.76,-8.29l121.2 0c5.4,0 9.77,3.71 9.77,8.29 0,4.57 -4.37,8.28 -9.77,8.28z"/>
   <path class="fil0" d="M130.96 104.48l-121.2 0c-5.39,0 -9.76,-3.71 -9.76,-8.28 0,-4.58 4.37,-8.29 9.76,-8.29l121.2 0c5.4,0 9.77,3.71 9.77,8.29 0,4.57 -4.37,8.28 -9.77,8.28z"/>
  </g>
 </g>
</svg>
