<?xml version="1.0" encoding="UTF-8"?>
<!DOCTYPE svg PUBLIC "-//W3C//DTD SVG 1.1//EN" "http://www.w3.org/Graphics/SVG/1.1/DTD/svg11.dtd">
<!-- Creator: CorelDRAW X7 -->
<svg xmlns="http://www.w3.org/2000/svg" xml:space="preserve" width="2.47875in" height="2.73334in" version="1.1" style="shape-rendering:geometricPrecision; text-rendering:geometricPrecision; image-rendering:optimizeQuality; fill-rule:evenodd; clip-rule:evenodd"
viewBox="0 0 2479 2733"
 xmlns:xlink="http://www.w3.org/1999/xlink">
 <defs>
  <style type="text/css">
   <![CDATA[
    .fil0 {fill:#F7F7F7;fill-rule:nonzero}
   ]]>
  </style>
 </defs>
 <g id="Layer_x0020_1">
  <metadata id="CorelCorpID_0Corel-Layer"/>
  <g id="_604392664">
   <path class="fil0" d="M2460 2733c-187,-1709 -317,-1761 -1107,-2074 -324,-129 -759,-301 -1353,-648l6 -11 12 0c588,342 1019,513 1341,641 799,317 932,369 1120,2083l0 9 -19 0z"/>
   <path class="fil0" d="M2479 2182c-165,-1250 -342,-1321 -1051,-1602 -303,-120 -702,-278 -1236,-580l38 0c518,291 907,445 1203,562 692,274 885,351 1046,1478l0 142z"/>
   <path class="fil0" d="M2479 1626c-153,-798 -371,-884 -977,-1125 -275,-109 -630,-249 -1094,-501l39 0c448,241 792,377 1061,484 590,234 817,324 971,1045l0 97z"/>
   <path class="fil0" d="M2479 1233c-153,-513 -388,-606 -902,-810 -246,-97 -554,-219 -946,-423l41 0c375,193 673,311 910,405 503,199 742,294 897,763l0 65z"/>
   <path class="fil0" d="M2479 951c-155,-340 -390,-433 -828,-607 -212,-84 -471,-186 -790,-344l42 0c303,148 550,246 754,326 428,170 665,264 822,579l0 46z"/>
   <path class="fil0" d="M2479 736c-155,-233 -380,-322 -753,-470 -175,-69 -381,-151 -627,-266l44 0c229,105 423,182 588,248 366,145 592,234 748,453l0 35z"/>
   <path class="fil0" d="M2479 562c-151,-166 -362,-249 -679,-375 -132,-52 -282,-112 -453,-187l47 0c154,67 291,121 412,169 311,123 521,207 673,364l0 29z"/>
   <path class="fil0" d="M2479 412c-144,-121 -336,-197 -604,-304 -83,-32 -172,-68 -269,-108l49 0c80,33 155,63 225,90 263,105 454,180 599,296l0 26z"/>
   <path class="fil0" d="M2479 277c-135,-90 -306,-158 -530,-247 -24,-10 -49,-20 -75,-30l51 0 30 12c220,87 390,154 524,242l0 23z"/>
   <path class="fil0" d="M2479 153c-94,-54 -203,-101 -333,-153l50 0c108,44 201,85 283,131l0 22z"/>
   <path class="fil0" d="M2479 34c-23,-11 -48,-23 -73,-34l45 0c10,4 19,9 28,13l0 21z"/>
  </g>
 </g>
</svg>
