<?xml version="1.0" encoding="UTF-8"?>
<!DOCTYPE svg PUBLIC "-//W3C//DTD SVG 1.1//EN" "http://www.w3.org/Graphics/SVG/1.1/DTD/svg11.dtd">
<!-- Creator: CorelDRAW X7 -->
<svg xmlns="http://www.w3.org/2000/svg" xml:space="preserve" width="0.136693in" height="0.136945in" version="1.1" style="shape-rendering:geometricPrecision; text-rendering:geometricPrecision; image-rendering:optimizeQuality; fill-rule:evenodd; clip-rule:evenodd"
viewBox="0 0 137 137"
 xmlns:xlink="http://www.w3.org/1999/xlink">
 <defs>
  <style type="text/css">
   <![CDATA[
    .fil0 {fill:#25CD59}
   ]]>
  </style>
 </defs>
 <g id="Layer_x0020_1">
  <metadata id="CorelCorpID_0Corel-Layer"/>
  <g id="_518361200">
   <path class="fil0" d="M48 10c3,0 6,2 7,5 1,3 -2,6 -4,7 -8,2 -11,-10 -3,-12zm-31 91c5,0 9,0 14,0 0,-1 0,-17 0,-18 0,0 0,0 0,0 0,-8 6,-15 14,-17 4,-1 25,0 31,0 5,0 10,0 14,-2 10,-4 11,-11 11,-20 0,-5 0,-11 0,-16 0,-4 0,-11 -1,-15 -4,-11 -22,-13 -33,-13 -10,0 -32,2 -32,15 0,5 0,10 0,16l33 0 0 4c-2,0 -35,0 -38,0 -11,0 -20,-1 -26,12 -6,11 -6,35 2,46 2,4 8,8 11,8z"/>
   <path class="fil0" d="M88 113c7,-1 9,11 2,12 -8,1 -10,-10 -2,-12zm13 10l0 -17 -32 0c-1,-1 -1,-3 -1,-5l50 0c7,0 13,-6 15,-13 6,-12 6,-48 -13,-52 -2,0 -13,0 -14,0 -1,10 2,20 -4,28 -5,8 -14,7 -23,7 -6,0 -11,0 -16,0 -8,0 -19,-1 -24,7 -3,4 -3,7 -3,13 0,5 0,29 0,31 2,8 10,12 18,13 9,2 20,2 29,1 4,-1 8,-2 12,-4 2,-1 6,-5 6,-9z"/>
  </g>
 </g>
</svg>
