<?xml version="1.0" encoding="UTF-8"?>
<!DOCTYPE svg PUBLIC "-//W3C//DTD SVG 1.1//EN" "http://www.w3.org/Graphics/SVG/1.1/DTD/svg11.dtd">
<!-- Creator: CorelDRAW X7 -->
<svg xmlns="http://www.w3.org/2000/svg" xml:space="preserve" width="2.47875in" height="2.73484in" version="1.1" style="shape-rendering:geometricPrecision; text-rendering:geometricPrecision; image-rendering:optimizeQuality; fill-rule:evenodd; clip-rule:evenodd"
viewBox="0 0 2479 2735"
 xmlns:xlink="http://www.w3.org/1999/xlink">
 <defs>
  <style type="text/css">
   <![CDATA[
    .fil0 {fill:#EDEDED;fill-rule:nonzero}
   ]]>
  </style>
 </defs>
 <g id="Layer_x0020_1">
  <metadata id="CorelCorpID_0Corel-Layer"/>
  <g id="_517034408">
   <path class="fil0" d="M18 0c187,1710 318,1761 1108,2075 324,128 759,301 1353,647l-7 13 -8 0c-590,-343 -1021,-515 -1344,-642 -799,-317 -932,-370 -1120,-2084l0 -9 18 0z"/>
   <path class="fil0" d="M0 551c164,1250 342,1321 1051,1602 303,120 703,279 1239,582l-38 0c-520,-292 -910,-446 -1207,-564 -691,-274 -884,-351 -1045,-1478l0 -142z"/>
   <path class="fil0" d="M0 1107c153,798 371,885 977,1125 275,109 631,250 1096,503l-39 0c-449,-242 -794,-379 -1063,-485 -590,-234 -817,-324 -971,-1046l0 -97z"/>
   <path class="fil0" d="M0 1500c153,513 387,606 902,810 246,98 555,220 949,425l-41 0c-377,-194 -675,-312 -914,-407 -502,-199 -741,-294 -896,-762l0 -66z"/>
   <path class="fil0" d="M0 1782c155,340 390,433 828,607 212,84 472,187 793,346l-42 0c-305,-149 -553,-247 -757,-328 -429,-170 -665,-264 -822,-579l0 -46z"/>
   <path class="fil0" d="M0 1997c154,233 380,323 753,471 175,69 383,151 630,267l-44 0c-231,-106 -426,-184 -592,-249 -365,-145 -591,-235 -747,-454l0 -35z"/>
   <path class="fil0" d="M0 2171c151,166 362,250 679,375 132,53 283,113 456,189l-47 0c-155,-68 -293,-122 -415,-171 -311,-123 -521,-206 -673,-363l0 -30z"/>
   <path class="fil0" d="M0 2322c144,120 336,197 604,303 83,33 174,69 273,110l-49 0c-82,-34 -159,-64 -230,-92 -263,-104 -454,-180 -598,-296l0 -25z"/>
   <path class="fil0" d="M0 2456c134,91 305,159 530,248 25,10 52,20 78,31l-50 0 -34 -14c-220,-87 -390,-154 -524,-242l0 -23z"/>
   <path class="fil0" d="M0 2581c94,53 205,101 336,154l-50 0c-109,-45 -203,-86 -286,-132l0 -22z"/>
   <path class="fil0" d="M0 2699c24,12 49,24 76,36l-45 0c-11,-5 -21,-10 -31,-15l0 -21z"/>
  </g>
 </g>
</svg>
