<?xml version="1.0" encoding="UTF-8"?>
<!DOCTYPE svg PUBLIC "-//W3C//DTD SVG 1.1//EN" "http://www.w3.org/Graphics/SVG/1.1/DTD/svg11.dtd">
<!-- Creator: CorelDRAW X7 -->
<svg xmlns="http://www.w3.org/2000/svg" xml:space="preserve" width="0.191386in" height="0.191386in" version="1.1" style="shape-rendering:geometricPrecision; text-rendering:geometricPrecision; image-rendering:optimizeQuality; fill-rule:evenodd; clip-rule:evenodd"
viewBox="0 0 191 191"
 xmlns:xlink="http://www.w3.org/1999/xlink">
 <defs>
  <style type="text/css">
   <![CDATA[
    .fil0 {fill:white}
   ]]>
  </style>
 </defs>
 <g id="Layer_x0020_1">
  <metadata id="CorelCorpID_0Corel-Layer"/>
  <path class="fil0" d="M96 0c53,0 95,43 95,96 0,53 -42,95 -95,95 -53,0 -96,-42 -96,-95 0,-53 43,-96 96,-96zm-63 91c0,5 21,9 28,12 4,1 4,2 7,0l54 -34c4,-3 8,-6 13,-7 -1,4 -22,21 -26,25l-21 19c-9,8 -6,-2 -6,32 0,7 7,-2 8,-3 4,-4 7,-5 9,-9l24 17c16,12 15,2 20,-19l14 -70c5,-18 -12,-9 -19,-6 -5,2 -10,4 -15,6l-76 29c-4,1 -14,4 -14,8z"/>
 </g>
</svg>
