<?xml version="1.0" encoding="UTF-8"?>
<!DOCTYPE svg PUBLIC "-//W3C//DTD SVG 1.1//EN" "http://www.w3.org/Graphics/SVG/1.1/DTD/svg11.dtd">
<!-- Creator: CorelDRAW X7 -->
<svg xmlns="http://www.w3.org/2000/svg" xml:space="preserve" width="2.47875in" height="2.73334in" version="1.1" style="shape-rendering:geometricPrecision; text-rendering:geometricPrecision; image-rendering:optimizeQuality; fill-rule:evenodd; clip-rule:evenodd"
viewBox="0 0 2479 2733"
 xmlns:xlink="http://www.w3.org/1999/xlink">
 <defs>
  <style type="text/css">
   <![CDATA[
    .fil0 {fill:#F7F7F7;fill-rule:nonzero}
   ]]>
  </style>
 </defs>
 <g id="Layer_x0020_1">
  <metadata id="CorelCorpID_0Corel-Layer"/>
  <g id="_517051352">
   <path class="fil0" d="M18 2733c187,-1709 318,-1761 1108,-2074 324,-129 759,-301 1353,-648l-6 -11 -12 0c-588,342 -1019,513 -1341,641 -799,317 -932,369 -1120,2083l0 9 18 0z"/>
   <path class="fil0" d="M0 2182c164,-1250 342,-1321 1051,-1602 303,-120 702,-278 1236,-580l-38 0c-518,291 -907,445 -1204,562 -691,274 -884,351 -1045,1478l0 142z"/>
   <path class="fil0" d="M0 1626c153,-798 371,-884 977,-1125 275,-109 630,-249 1094,-501l-40 0c-447,241 -792,377 -1060,484 -590,234 -817,324 -971,1045l0 97z"/>
   <path class="fil0" d="M0 1233c153,-513 387,-606 902,-810 245,-97 554,-219 946,-423l-41 0c-376,193 -673,311 -911,405 -502,199 -741,294 -896,763l0 65z"/>
   <path class="fil0" d="M0 951c155,-340 390,-433 828,-607 212,-84 470,-186 790,-344l-42 0c-303,148 -550,246 -754,326 -429,170 -665,264 -822,579l0 46z"/>
   <path class="fil0" d="M0 736c154,-233 380,-322 753,-470 175,-69 381,-151 627,-266l-45 0c-229,105 -422,182 -588,248 -365,145 -591,234 -747,453l0 35z"/>
   <path class="fil0" d="M0 562c151,-166 362,-249 679,-375 131,-52 281,-112 453,-187l-47 0c-155,67 -291,121 -412,169 -311,123 -521,207 -673,364l0 29z"/>
   <path class="fil0" d="M0 412c144,-121 336,-197 604,-304 82,-32 172,-68 269,-108l-49 0c-81,33 -156,63 -226,90 -263,105 -454,180 -598,296l0 26z"/>
   <path class="fil0" d="M0 277c134,-90 305,-158 530,-247 24,-10 49,-20 75,-30l-51 0 -30 12c-220,87 -390,154 -524,242l0 23z"/>
   <path class="fil0" d="M0 153c94,-54 203,-101 333,-153l-50 0c-108,44 -201,85 -283,131l0 22z"/>
   <path class="fil0" d="M0 34c23,-11 47,-23 72,-34l-44 0c-10,4 -19,9 -28,13l0 21z"/>
  </g>
 </g>
</svg>
