<?xml version="1.0" encoding="UTF-8"?>
<!DOCTYPE svg PUBLIC "-//W3C//DTD SVG 1.1//EN" "http://www.w3.org/Graphics/SVG/1.1/DTD/svg11.dtd">
<!-- Creator: CorelDRAW X7 -->
<svg xmlns="http://www.w3.org/2000/svg" xml:space="preserve" width="0.135331in" height="0.135331in" version="1.1" style="shape-rendering:geometricPrecision; text-rendering:geometricPrecision; image-rendering:optimizeQuality; fill-rule:evenodd; clip-rule:evenodd"
viewBox="0 0 135 135"
 xmlns:xlink="http://www.w3.org/1999/xlink">
 <defs>
  <style type="text/css">
   <![CDATA[
    .fil0 {fill:white}
   ]]>
  </style>
 </defs>
 <g id="Layer_x0020_1">
  <metadata id="CorelCorpID_0Corel-Layer"/>
  <path class="fil0" d="M68 0c37,0 67,30 67,68 0,37 -30,67 -67,67 -38,0 -68,-30 -68,-67 0,-38 30,-68 68,-68zm43 41c-4,1 -7,1 -12,2 4,-4 8,-5 10,-9 -11,3 -7,3 -13,-1 -10,-7 -25,-1 -28,12 -1,3 0,6 0,8 -2,4 -31,-4 -42,-18 -3,3 -1,12 1,16 3,4 5,6 9,9 -4,1 -7,0 -11,-1 0,4 3,9 5,11 2,1 4,2 6,3 2,1 4,1 4,4 -2,1 -5,1 -7,1 1,3 4,7 7,8 4,2 8,2 13,3 -7,6 -17,10 -27,11 2,2 10,4 14,5 16,2 34,-2 45,-12 6,-6 12,-12 16,-23 5,-14 2,-21 5,-24 2,-2 4,-3 5,-5z"/>
 </g>
</svg>
