<?xml version="1.0" encoding="UTF-8"?>
<!DOCTYPE svg PUBLIC "-//W3C//DTD SVG 1.1//EN" "http://www.w3.org/Graphics/SVG/1.1/DTD/svg11.dtd">
<!-- Creator: CorelDRAW X7 -->
<svg xmlns="http://www.w3.org/2000/svg" xml:space="preserve" width="2.24931in" height="1.09844in" version="1.1" style="shape-rendering:geometricPrecision; text-rendering:geometricPrecision; image-rendering:optimizeQuality; fill-rule:evenodd; clip-rule:evenodd"
viewBox="0 0 2249 1098"
 xmlns:xlink="http://www.w3.org/1999/xlink">
 <defs>
  <style type="text/css">
   <![CDATA[
    .fil4 {fill:black;fill-rule:nonzero}
    .fil3 {fill:#0C6328;fill-rule:nonzero}
    .fil7 {fill:#168439;fill-rule:nonzero}
    .fil2 {fill:#24B752;fill-rule:nonzero}
    .fil1 {fill:#29CB5B;fill-rule:nonzero}
    .fil11 {fill:#7DDD6F;fill-rule:nonzero}
    .fil15 {fill:#9AD297;fill-rule:nonzero}
    .fil14 {fill:#A4EE9C;fill-rule:nonzero}
    .fil8 {fill:#A56B48;fill-rule:nonzero}
    .fil13 {fill:#B5DFFD;fill-rule:nonzero}
    .fil6 {fill:#E18340;fill-rule:nonzero}
    .fil0 {fill:#E5F6EB;fill-rule:nonzero}
    .fil5 {fill:#EE9759;fill-rule:nonzero}
    .fil9 {fill:#EECCB2;fill-rule:nonzero}
    .fil10 {fill:#F6A670;fill-rule:nonzero}
    .fil12 {fill:white;fill-rule:nonzero}
   ]]>
  </style>
 </defs>
 <g id="Layer_x0020_1">
  <metadata id="CorelCorpID_0Corel-Layer"/>
  <g id="_510280224">
   <path class="fil0" d="M111 1093c0,0 -188,-234 -75,-456 113,-223 328,-170 629,-396 366,-274 623,-290 950,-170 185,68 215,347 509,521 265,156 49,422 -91,463 -139,42 -233,42 -233,42l-1689 -4z"/>
   <path class="fil1" d="M1233 590c-47,96 -106,357 -122,371 -16,14 -109,70 -125,97 -16,26 -9,17 -2,19 8,2 411,4 411,4 0,0 -46,-277 -51,-279 -6,-2 -111,-212 -111,-212z"/>
   <path class="fil2" d="M1166 1079c75,1 153,1 196,2l-59 -353c-31,-61 -70,-138 -70,-138 -6,12 -12,27 -18,44 -6,265 32,339 3,386 -22,37 -42,53 -52,59z"/>
   <path class="fil3" d="M2005 1098l-1939 0c-8,0 -15,-6 -15,-15 0,-8 7,-14 15,-14l1939 0c8,0 15,6 15,14 0,9 -7,15 -15,15z"/>
   <path class="fil1" d="M1481 475c67,62 216,121 216,121 0,0 23,209 8,328 -16,119 -7,143 -7,143l-308 0c0,0 -41,-58 -117,-236 -48,-113 -40,-241 -40,-241l188 -84 60 -31z"/>
   <path class="fil2" d="M1390 1067l308 0c0,0 -9,-24 7,-143 12,-98 -1,-257 -6,-310l-28 -12c-70,20 -111,125 -123,227 -8,69 -121,136 -195,173 24,47 37,65 37,65z"/>
   <path class="fil4" d="M1314 260c-37,83 8,159 6,156 -1,-3 57,-139 57,-139l-63 -17z"/>
   <path class="fil5" d="M1455 321l47 172c1,5 0,10 -3,14 -11,14 -27,42 -58,51 -7,1 -14,2 -20,2 -7,0 -12,-5 -14,-11l-31 -163 79 -65z"/>
   <path class="fil6" d="M1446 336l-17 7 -53 43 28 145c48,-30 55,-51 42,-195z"/>
   <path class="fil5" d="M1453 397c-10,57 -53,95 -94,86 -42,-10 -62,-46 -57,-120 4,-57 32,-120 74,-111 42,10 88,89 77,145z"/>
   <path class="fil1" d="M1697 596c63,14 74,140 94,274 3,15 15,145 15,145 0,0 1,24 -23,36 -20,10 -28,18 -146,19 -114,1 -260,-4 -260,-4 0,0 -1,-42 11,-62 17,-31 196,-76 213,-78 2,-34 -17,-154 9,-236 18,-56 37,-86 62,-94 8,-2 16,-2 25,0z"/>
   <path class="fil2" d="M1441 1069c56,1 133,2 196,1 118,-1 126,-9 146,-19 24,-12 25,-32 25,-32 0,0 -12,-139 -14,-154 -13,-89 -27,-192 -60,-241 31,91 36,167 36,200 0,17 -1,39 -6,55 -5,18 -19,29 -40,23 -43,-12 -97,13 -97,13 0,0 41,-14 79,-1 38,13 116,100 31,132 -27,10 -184,18 -296,23z"/>
   <path class="fil2" d="M1397 1008c0,0 16,-27 49,-27 32,0 30,53 25,70 -5,18 -24,19 -24,19l-70 -4 20 -58z"/>
   <path class="fil7" d="M1337 1082l-462 0c-1,0 -1,-1 -1,-2l0 -25c0,0 0,-1 1,-1l462 0c1,0 1,1 1,1l0 25c0,1 0,2 -1,2z"/>
   <path class="fil5" d="M1388 1011c-68,-25 -86,-16 -101,-20 -38,-11 -48,-2 -73,66 -4,13 10,14 24,14 15,0 32,-28 38,-31 5,-3 20,-5 20,-5 0,0 -4,0 -12,15 -7,14 -16,20 -4,20 11,0 12,-19 33,-15 21,4 13,15 64,14 52,-1 91,0 90,-31 -1,-30 2,-44 -25,-49 -22,-4 -54,22 -54,22z"/>
   <path class="fil8" d="M1389 1011c46,-5 33,51 28,56 -5,5 25,2 25,2 0,0 14,-23 2,-49 -11,-26 -35,-28 -35,-28l-20 12 0 7z"/>
   <path class="fil2" d="M1437 1006c-1,7 -13,12 -27,10 -14,-1 -25,-7 -24,-14 0,-8 12,-12 26,-11 15,1 26,8 25,15z"/>
   <path class="fil1" d="M1433 1002c0,7 -11,11 -24,10 -12,-1 -22,-7 -22,-14 1,-6 12,-10 24,-9 13,1 23,7 22,13z"/>
   <path class="fil9" d="M1425 999c0,5 -8,8 -17,7 -9,-1 -16,-5 -16,-9 1,-5 8,-8 18,-7 9,1 16,5 15,9z"/>
   <path class="fil2" d="M870 994l-444 0c-24,0 -44,-17 -48,-40l-58 -319c-5,-30 18,-58 48,-58l444 0c23,0 43,17 47,40l58 319c6,31 -17,58 -47,58z"/>
   <path class="fil1" d="M890 938l-59 -313c-4,-23 -24,-40 -48,-40l-451 0c-10,11 -15,26 -12,42l60 326c5,24 25,41 50,41l412 0c31,0 54,-27 48,-56z"/>
   <path class="fil3" d="M783 1037l-84 0c-15,0 -27,-13 -27,-30l0 -154c0,-26 -20,-47 -43,-47l-44 0c-24,0 -44,21 -44,47l0 173c0,29 22,53 49,53l230 -2c0,-22 -16,-40 -37,-40z"/>
   <path class="fil2" d="M545 857l0 170c0,27 21,50 48,52l225 -2c0,-3 -18,-10 -40,-10l-91 0c-16,0 -30,-13 -30,-29l0 -181c0,-26 -21,-47 -46,-47l-20 0c-25,0 -46,21 -46,47z"/>
   <path class="fil5" d="M1014 1018c34,-19 76,-13 91,6 15,19 17,31 -17,31 -33,0 -101,3 -113,2 -11,-2 39,-39 39,-39z"/>
   <path class="fil5" d="M1065 1006c36,-9 61,13 91,33 27,18 32,35 3,20 -43,-21 -68,-24 -68,-24l-26 -29z"/>
   <path class="fil5" d="M1031 1017c-18,0 -34,-5 -47,-4 -13,1 -54,43 -48,46 1,0 1,1 2,1 10,3 21,-1 26,-9 6,-10 15,-21 26,-17 19,7 38,6 38,6l3 -23z"/>
   <path class="fil10" d="M1021 1063c-19,-8 11,-71 21,-71 10,0 48,31 48,31 0,0 -9,5 -39,-5 -8,-3 -14,40 -23,45 -9,5 -7,0 -7,0z"/>
   <path class="fil4" d="M1302 396c-2,70 22,81 38,91 17,9 88,-6 98,-24 27,-43 4,-84 10,-84 6,1 12,18 27,40 2,2 12,16 12,11 7,-62 40,-81 32,-143 -6,-47 -35,-43 -35,-43 0,0 -19,-39 -78,-34 -39,3 -74,18 -115,29 -41,10 48,102 101,69 53,-34 27,40 35,46 8,6 4,1 8,39 3,37 -45,62 -59,65 -44,11 -51,4 -61,-13 -8,-14 -13,-49 -13,-49z"/>
   <path class="fil5" d="M1485 375c-5,17 -18,29 -28,25 -10,-3 -11,-18 -9,-38 1,-18 17,-29 27,-25 10,4 15,21 10,38z"/>
   <path class="fil11" d="M520 328l-377 0c-5,0 -8,-3 -8,-7l0 -162c0,-5 3,-8 8,-8l377 0c4,0 7,3 7,8l0 162c0,4 -3,7 -7,7z"/>
   <path class="fil12" d="M511 320l-360 0c-3,0 -5,-3 -5,-5l0 -112c0,-3 2,-5 5,-5l360 0c3,0 5,2 5,5l0 112c0,2 -2,5 -5,5z"/>
   <path class="fil12" d="M166 178l-14 0c0,0 -1,0 -1,-1l0 -12c0,-1 1,-1 1,-1l14 0c0,0 1,0 1,1l0 12c0,1 -1,1 -1,1z"/>
   <path class="fil12" d="M194 178l-14 0c-1,0 -1,0 -1,-1l0 -12c0,-1 0,-1 1,-1l14 0c0,0 1,0 1,1l0 12c0,1 -1,1 -1,1z"/>
   <path class="fil12" d="M222 178l-14 0c-1,0 -1,0 -1,-1l0 -12c0,-1 0,-1 1,-1l14 0c0,0 0,0 0,1l0 12c0,1 0,1 0,1z"/>
   <path class="fil11" d="M501 224l-196 0c-3,0 -6,-2 -6,-5 0,-4 3,-6 6,-6l196 0c3,0 6,2 6,6 0,3 -3,5 -6,5z"/>
   <path class="fil11" d="M354 315l-196 0c-3,0 -6,-3 -6,-6 0,-3 3,-6 6,-6l196 0c3,0 6,3 6,6 0,3 -3,6 -6,6z"/>
   <path class="fil13" d="M391 315l-23 0c0,0 0,0 0,-1l0 -10c0,-1 0,-1 0,-1l23 0c1,0 1,0 1,1l0 10c0,1 0,1 -1,1z"/>
   <path class="fil13" d="M422 315l-23 0c-1,0 -1,0 -1,-1l0 -10c0,-1 0,-1 1,-1l23 0c0,0 0,0 0,1l0 10c0,1 0,1 0,1z"/>
   <path class="fil11" d="M503 250l-324 0c-3,0 -4,-2 -4,-4 0,-2 1,-4 4,-4l324 0c2,0 4,2 4,4 0,2 -2,4 -4,4z"/>
   <path class="fil11" d="M503 267l-324 0c-3,0 -4,-2 -4,-4 0,-2 1,-4 4,-4l324 0c2,0 4,2 4,4 0,2 -2,4 -4,4z"/>
   <path class="fil14" d="M608 453l-377 0c-4,0 -7,-4 -7,-8l0 -162c0,-4 3,-8 7,-8l377 0c4,0 8,4 8,8l0 162c0,4 -4,8 -8,8z"/>
   <path class="fil12" d="M599 444l-359 0c-3,0 -6,-2 -6,-5l0 -112c0,-3 3,-5 6,-5l359 0c3,0 6,2 6,5l0 112c0,3 -3,5 -6,5z"/>
   <path class="fil12" d="M255 302l-15 0c0,0 0,0 0,0l0 -13c0,0 0,-1 0,-1l15 0c0,0 0,1 0,1l0 13c0,0 0,0 0,0z"/>
   <path class="fil12" d="M283 302l-15 0c0,0 0,0 0,0l0 -13c0,0 0,-1 0,-1l15 0c0,0 0,1 0,1l0 13c0,0 0,0 0,0z"/>
   <path class="fil12" d="M310 302l-14 0c0,0 0,0 0,0l0 -13c0,0 0,-1 0,-1l14 0c1,0 1,1 1,1l0 13c0,0 0,0 -1,0z"/>
   <path class="fil14" d="M590 349l-196 0c-3,0 -6,-3 -6,-6 0,-3 3,-6 6,-6l196 0c3,0 6,3 6,6 0,3 -3,6 -6,6z"/>
   <path class="fil14" d="M442 439l-196 0c-3,0 -5,-2 -5,-6 0,-3 2,-6 5,-6l196 0c4,0 6,3 6,6 0,4 -2,6 -6,6z"/>
   <path class="fil14" d="M480 439l-23 0c-1,0 -1,0 -1,0l0 -11c0,0 0,-1 1,-1l23 0c0,0 0,1 0,1l0 11c0,0 0,0 0,0z"/>
   <path class="fil14" d="M511 439l-24 0c0,0 0,0 0,0l0 -11c0,0 0,-1 0,-1l24 0c0,0 0,1 0,1l0 11c0,0 0,0 0,0z"/>
   <path class="fil14" d="M592 374l-325 0c-2,0 -4,-1 -4,-4 0,-2 2,-4 4,-4l325 0c2,0 4,2 4,4 0,3 -2,4 -4,4z"/>
   <path class="fil14" d="M592 391l-325 0c-2,0 -4,-1 -4,-4 0,-2 2,-3 4,-3l325 0c2,0 4,1 4,3 0,3 -2,4 -4,4z"/>
   <path class="fil15" d="M755 409c0,28 -23,51 -51,51 -28,0 -51,-23 -51,-51 0,-28 23,-51 51,-51 28,0 51,23 51,51z"/>
   <path class="fil12" d="M699 428c0,0 0,0 0,0 -1,0 -2,-1 -3,-1l-14 -16c-1,-2 -1,-4 1,-5 1,-2 4,-2 5,0l11 12 27 -26c1,-1 4,-1 5,1 2,1 2,4 0,5l-29 29c-1,1 -2,1 -3,1z"/>
  </g>
 </g>
</svg>
