<?xml version="1.0" encoding="UTF-8"?>
<!DOCTYPE svg PUBLIC "-//W3C//DTD SVG 1.1//EN" "http://www.w3.org/Graphics/SVG/1.1/DTD/svg11.dtd">
<!-- Creator: CorelDRAW X7 -->
<svg xmlns="http://www.w3.org/2000/svg" xml:space="preserve" width="1.97783in" height="1.16305in" version="1.1" style="shape-rendering:geometricPrecision; text-rendering:geometricPrecision; image-rendering:optimizeQuality; fill-rule:evenodd; clip-rule:evenodd"
viewBox="0 0 1978 1163"
 xmlns:xlink="http://www.w3.org/1999/xlink">
 <defs>
  <style type="text/css">
   <![CDATA[
    .fil1 {fill:black;fill-rule:nonzero}
    .fil9 {fill:#007300;fill-rule:nonzero}
    .fil3 {fill:#009500;fill-rule:nonzero}
    .fil16 {fill:#00B500;fill-rule:nonzero}
    .fil12 {fill:#1A1A1A;fill-rule:nonzero}
    .fil5 {fill:#24B752;fill-rule:nonzero}
    .fil4 {fill:#29CB5B;fill-rule:nonzero}
    .fil15 {fill:#72B370;fill-rule:nonzero}
    .fil8 {fill:#7DDD6F;fill-rule:nonzero}
    .fil14 {fill:#9AD297;fill-rule:nonzero}
    .fil10 {fill:#A4EE9C;fill-rule:nonzero}
    .fil6 {fill:#E18340;fill-rule:nonzero}
    .fil0 {fill:#E5F6EB;fill-rule:nonzero}
    .fil2 {fill:#EE9759;fill-rule:nonzero}
    .fil13 {fill:#F0E3DC;fill-rule:nonzero}
    .fil7 {fill:#F3CC5C;fill-rule:nonzero}
    .fil11 {fill:white;fill-rule:nonzero}
   ]]>
  </style>
 </defs>
 <g id="Layer_x0020_1">
  <metadata id="CorelCorpID_0Corel-Layer"/>
  <g id="_427347832">
   <path class="fil0" d="M258 1142c0,0 -465,-292 -147,-605 318,-313 743,-634 1028,-510 285,124 260,281 573,507 313,227 241,407 184,498 -56,91 -65,115 -65,115l-1573 -5z"/>
   <path class="fil1" d="M613 313c69,-62 120,-25 158,16 30,33 34,40 59,74 3,5 6,10 6,16 1,38 20,195 -1,250 -25,63 -330,92 -330,92l108 -448z"/>
   <path class="fil1" d="M809 705c-2,0 -3,-1 -3,-3 0,-2 1,-3 3,-3 9,-1 16,-5 22,-13 35,-44 15,-192 -1,-272 -1,-2 0,-4 2,-4 2,-1 3,1 4,2 3,18 16,80 19,145 4,67 -2,112 -19,133 -7,10 -16,15 -27,15 0,0 0,0 0,0z"/>
   <path class="fil1" d="M639 295c-132,73 -51,320 -219,408 -47,25 -190,149 -96,312 61,107 244,84 305,-10 60,-95 10,-710 10,-710z"/>
   <path class="fil1" d="M287 857c0,0 0,0 0,0 -2,0 -3,-2 -3,-3 0,-1 3,-22 16,-50 12,-25 36,-61 79,-89 78,-49 130,-96 191,-326 0,-1 2,-2 3,-2 2,1 3,2 3,4 -30,111 -59,186 -92,236 -31,47 -63,69 -101,93 -81,52 -93,134 -93,134 0,2 -1,3 -3,3z"/>
   <path class="fil1" d="M290 793c-1,0 -1,0 -2,0 -1,-1 -2,-3 -1,-5 20,-30 44,-55 73,-74 109,-70 127,-111 217,-343 1,-2 3,-3 4,-2 2,1 3,3 2,4 -45,116 -72,184 -101,233 -32,51 -68,81 -119,113 -28,19 -52,43 -70,73 -1,1 -2,1 -3,1z"/>
   <path class="fil2" d="M635 449c-46,95 -39,180 -39,180 0,0 5,34 27,41 21,7 50,-14 49,-42 -2,-28 7,-97 17,-121 11,-25 -54,-58 -54,-58z"/>
   <path class="fil3" d="M394 1107c3,25 -4,23 19,27 23,5 64,-11 64,-11l-46 -85 -37 69z"/>
   <path class="fil2" d="M602 579c-13,42 -110,9 -144,19 -34,10 -63,152 -68,279 -5,128 2,229 15,246 13,16 226,22 245,16 19,-7 -161,-88 -161,-88 0,0 -12,-148 3,-224 14,-76 145,-176 145,-176l-35 -72z"/>
   <path class="fil2" d="M647 592c34,51 123,45 153,87 31,42 95,272 95,272l68 -234c0,0 55,-9 37,29 -31,69 -43,288 -78,319 -38,35 -76,7 -98,-54 -20,-59 -72,-185 -109,-234 -37,-48 -78,-126 -78,-126l10 -59z"/>
   <path class="fil4" d="M500 598c68,79 200,76 229,66 29,-9 29,-9 29,-9 0,0 23,-9 42,14 20,23 66,165 74,197 9,32 21,85 21,85 0,0 -34,42 -34,84 0,42 14,42 14,42 0,0 -43,-9 -52,-35 -10,-26 -97,-260 -97,-260l-241 5 4 264c0,0 -21,-19 -50,0 -29,20 -39,65 -34,72 5,6 -10,6 -10,1 0,-5 -27,-123 -8,-316 19,-194 57,-215 78,-216 20,-2 35,6 35,6z"/>
   <path class="fil3" d="M866 1074c0,0 0,0 0,0 0,0 0,0 0,0z"/>
   <path class="fil5" d="M875 957c-14,5 -38,54 -38,54 0,0 -53,-117 -70,-280l-19 111c27,71 68,182 75,200 9,23 44,33 49,34 -1,0 -4,-2 -6,-9 -2,-1 -10,-5 -11,-6 -13,-12 -8,-40 1,-71 8,-32 33,-37 19,-33z"/>
   <path class="fil5" d="M497 787l-27 -122c-29,41 -32,180 -20,276 10,79 24,99 34,107 3,2 5,3 5,3l-4 -264 12 0z"/>
   <path class="fil4" d="M420 664c49,133 25,160 90,316 36,88 106,154 106,154 0,0 57,14 128,9 71,-4 123,-9 123,-9 0,0 -75,-45 -78,-76 -3,-31 -17,-152 1,-238 14,-68 -45,-135 -45,-135l-98 -5 -227 -16z"/>
   <path class="fil5" d="M507 868c-9,-31 37,10 111,17 74,8 157,-4 116,9 -41,13 -153,-7 -132,34 24,48 52,95 93,123 27,18 92,35 29,26 -62,-10 -129,-83 -158,-130 -29,-48 -57,-72 -59,-79z"/>
   <path class="fil6" d="M671 615c1,-32 9,-87 18,-108 8,-18 -24,-40 -42,-51l-15 -1c-3,6 -5,11 -7,16 -16,107 33,151 56,160 10,4 21,4 31,3 -15,-5 -29,-11 -41,-19z"/>
   <path class="fil7" d="M642 663c-6,0 -12,-1 -17,-2 -14,-3 -46,-16 -53,-61 -1,-1 0,-2 1,-2 1,0 2,1 2,2 7,43 38,54 50,58 20,4 41,0 49,-11 7,-9 3,-27 3,-27 0,-1 0,-2 1,-2 1,0 2,0 3,1 0,1 4,20 -4,30 -6,9 -20,14 -35,14z"/>
   <path class="fil2" d="M794 491c-11,58 -37,105 -79,96 -43,-9 -88,-70 -76,-128 12,-57 56,-97 99,-88 42,9 70,43 56,120z"/>
   <path class="fil2" d="M946 777c0,0 -79,212 -83,234 -4,22 4,36 6,36 2,0 69,-115 69,-115l8 -155z"/>
   <path class="fil2" d="M949 767c7,-21 -3,-49 -3,-49l28 4 -25 45z"/>
   <path class="fil8" d="M981 731l-80 0c-5,0 -9,-5 -7,-10l50 -169c1,-3 4,-5 7,-5l80 0c5,0 9,4 7,9l-50 169c-1,3 -4,6 -7,6z"/>
   <path class="fil9" d="M991 731l-80 0c-5,0 -9,-5 -7,-10l50 -169c1,-3 4,-5 7,-5l80 0c5,0 9,4 7,9l-50 169c-1,3 -4,6 -7,6z"/>
   <path class="fil10" d="M933 608c-9,30 -14,56 -13,56 1,1 10,-24 18,-55 9,-31 14,-56 13,-56 -2,-1 -10,24 -18,55z"/>
   <path class="fil2" d="M987 781c3,-28 27,-54 36,-63 3,-2 4,-6 4,-10 0,-13 0,-46 -3,-50 -4,-5 -13,-68 -17,-66 -5,3 1,58 1,58 0,0 -11,-5 -16,-7 -6,-3 -28,22 -28,22 0,0 -11,27 18,15 35,-13 9,25 -14,49 -19,20 -3,25 -3,25l15 -1 7 28z"/>
   <path class="fil7" d="M979 803c-3,0 -6,-1 -9,-1 -7,-3 -20,-10 -24,-34 0,-1 1,-2 2,-2 1,0 2,0 2,1 3,21 13,28 21,31 6,2 11,1 13,0 0,0 0,-1 1,-1 1,0 2,0 2,1 1,1 0,2 0,3 -2,1 -5,2 -8,2z"/>
   <path class="fil7" d="M976 796c-3,0 -5,0 -8,-1 -14,-2 -23,-9 -25,-19 0,-1 0,-2 1,-2 1,0 2,0 2,1 3,10 11,14 19,16 9,2 19,1 20,0 0,-1 1,-1 2,-1 1,1 1,2 1,2 -1,3 -7,4 -12,4z"/>
   <path class="fil11" d="M750 455c-4,0 -8,2 -11,6 -5,5 -8,13 -9,21 -3,16 3,31 13,33 10,1 20,-11 22,-27 3,-17 -3,-32 -13,-33 0,0 -1,0 -2,0zm-5 66c-1,0 -2,0 -3,0 -14,-2 -22,-20 -19,-40 2,-9 5,-18 11,-24 5,-6 12,-9 19,-8 14,2 22,19 19,39 -3,19 -15,33 -27,33z"/>
   <path class="fil11" d="M796 462c-5,0 -12,10 -14,26 -3,16 1,28 7,28 5,1 13,-9 15,-25 1,-8 1,-15 -1,-20 -1,-5 -3,-8 -6,-9 0,0 0,0 -1,0zm-7 59c0,0 -1,0 -1,0 -9,-1 -14,-16 -11,-34 3,-18 12,-31 21,-30 4,1 8,5 10,12 2,7 2,14 1,23 -3,17 -11,29 -20,29z"/>
   <path class="fil11" d="M730 468c-1,0 -1,0 -1,0l-106 -31c-1,0 -2,-2 -2,-3 1,-2 2,-3 4,-3l106 31c1,0 2,2 2,3 -1,2 -2,3 -3,3z"/>
   <path class="fil1" d="M805 402c-163,96 -172,32 -172,32l10 -92 96 5 66 55z"/>
   <path class="fil2" d="M646 455c3,16 -2,31 -12,34 -10,2 -22,-9 -25,-25 -4,-17 1,-32 11,-34 10,-2 22,9 26,25z"/>
   <path class="fil7" d="M634 476c0,4 -3,7 -6,7 -4,0 -7,-3 -7,-7 0,-3 3,-6 7,-6 3,0 6,3 6,6z"/>
   <path class="fil9" d="M1893 1163l-1632 0c-8,0 -15,-7 -15,-15 0,-8 7,-15 15,-15l1632 0c8,0 15,7 15,15 0,8 -7,15 -15,15z"/>
   <path class="fil3" d="M648 1130c0,0 -62,1 -63,6 0,6 3,8 25,12 21,4 267,6 269,4 2,-2 74,-19 74,-19l-172 -3 -133 0z"/>
   <path class="fil2" d="M681 1089c0,0 44,-19 57,-10 13,8 51,48 51,48l-108 -38z"/>
   <path class="fil1" d="M786 1130c-1,1 -2,2 -3,1l-90 -68c-5,-3 -8,-9 -5,-12 2,-3 8,-2 13,2l85 74c1,1 1,2 0,3z"/>
   <path class="fil2" d="M548 1081c0,0 73,29 82,29 8,0 56,-32 72,-28 17,4 95,44 93,47 -2,4 -24,11 -91,9 -67,-2 -175,-12 -175,-12l19 -45z"/>
   <path class="fil12" d="M1481 1134l-323 0c0,0 -1,0 -1,-1l0 -61c0,0 1,-1 1,-1l323 0c1,0 3,2 3,3l0 58c0,1 -2,2 -3,2z"/>
   <path class="fil13" d="M1440 1082l-283 0c-2,3 -3,7 -3,11l0 19c0,5 1,8 3,12l283 0c10,0 19,-9 19,-19l0 -5c0,-10 -9,-18 -19,-18z"/>
   <path class="fil8" d="M1465 1071l-243 0c0,0 -1,0 -1,0l0 -37c0,-1 1,-1 1,-1l243 0c1,0 2,1 2,2l0 35c0,1 -1,1 -2,1z"/>
   <path class="fil13" d="M1434 1040l-213 0c-1,2 -2,4 -2,6l0 12c0,3 1,5 2,7l213 0c8,0 14,-5 14,-11l0 -3c0,-6 -6,-11 -14,-11z"/>
   <path class="fil10" d="M1492 261l-242 0c-7,0 -11,-6 -9,-14l37 -100c3,-8 11,-14 19,-14l242 0c8,0 12,6 9,14l-37 100c-2,8 -11,14 -19,14z"/>
   <path class="fil11" d="M1484 251l-218 0c-6,0 -10,-6 -7,-12l30 -84c2,-6 10,-12 16,-12l218 0c7,0 10,6 8,12l-30 84c-3,6 -10,12 -17,12z"/>
   <path class="fil10" d="M1346 256c-20,52 -51,69 -51,69 0,0 22,-31 19,-45 -3,-15 -15,-21 -15,-21l47 -3z"/>
   <path class="fil10" d="M1502 173l-141 0c-2,0 -3,-2 -3,-4l1 0c0,-3 3,-5 5,-5l141 0c2,0 3,2 2,5l0 0c-1,2 -3,4 -5,4z"/>
   <path class="fil10" d="M1495 191l-140 0c-3,0 -4,-2 -3,-4l0 -1c1,-2 3,-4 6,-4l140 0c2,0 4,2 3,4l0 1c-1,2 -4,4 -6,4z"/>
   <path class="fil10" d="M1488 211l-141 0c-2,0 -3,-2 -2,-4l0 0c0,-3 3,-4 5,-4l141 0c2,0 3,1 2,4l0 0c-1,2 -3,4 -5,4z"/>
   <path class="fil10" d="M1339 187c-5,16 -20,28 -32,28 -13,0 -18,-12 -13,-28 6,-15 20,-27 33,-27 12,0 18,12 12,27z"/>
   <path class="fil10" d="M1355 523l-12 0c-3,0 -4,-2 -3,-5l3 -10c1,-2 4,-4 7,-4l12 0c2,0 4,2 3,4l-4 10c-1,3 -4,5 -6,5z"/>
   <path class="fil10" d="M1393 523l-12 0c-2,0 -4,-2 -3,-5l4 -10c1,-2 4,-4 6,-4l12 0c3,0 4,2 3,4l-4 10c0,3 -3,5 -6,5z"/>
   <path class="fil10" d="M1432 523l-12 0c-3,0 -4,-2 -3,-5l3 -10c1,-2 4,-4 7,-4l12 0c2,0 3,2 3,4l-4 10c-1,3 -4,5 -6,5z"/>
   <path class="fil10" d="M1202 447l-241 0c-8,0 -12,-7 -9,-14l36 -101c3,-7 12,-14 19,-14l242 0c8,0 12,7 9,14l-36 101c-3,7 -12,14 -20,14z"/>
   <path class="fil11" d="M1194 436l-218 0c-6,0 -10,-5 -7,-12l30 -83c2,-7 10,-12 17,-12l217 0c7,0 10,5 8,12l-30 83c-3,7 -10,12 -17,12z"/>
   <path class="fil10" d="M973 441c-19,53 0,69 0,69 0,0 0,-30 14,-45 14,-15 31,-21 31,-21l-45 -3z"/>
   <path class="fil10" d="M1135 365l-118 0c-3,0 -4,-1 -3,-4l0 0c1,-2 4,-4 6,-4l118 0c2,0 3,2 3,4l-1 0c0,3 -3,4 -5,4z"/>
   <path class="fil10" d="M1129 383l-119 0c-2,0 -3,-1 -2,-4l0 0c1,-3 3,-4 5,-4l119 0c2,0 3,1 2,4l0 0c-1,3 -3,4 -5,4z"/>
   <path class="fil10" d="M1121 404l-118 0c-2,0 -4,-2 -3,-4l1 -1c0,-2 3,-4 5,-4l118 0c2,0 4,2 3,4l-1 1c0,2 -3,4 -5,4z"/>
   <path class="fil10" d="M1423 560l-234 0c-4,0 -6,-1 -5,-3l1 -1c2,-2 6,-4 10,-4l234 0c4,0 6,2 5,4l-1 1c-1,2 -6,3 -10,3z"/>
   <path class="fil10" d="M1410 590l-234 0c-4,0 -6,-2 -4,-4l0 -1c2,-2 6,-3 11,-3l233 0c4,0 6,1 5,3l-1 1c-1,2 -6,4 -10,4z"/>
   <path class="fil10" d="M1176 411l-17 0c-8,0 -12,-7 -9,-14l13 -36c3,-7 11,-14 19,-14l17 0c8,0 12,7 9,14l-13 36c-2,7 -11,14 -19,14z"/>
   <path class="fil14" d="M1774 1088c31,-171 24,-232 -59,-371 -83,-139 -91,-399 -123,-323 -31,76 -27,267 72,360 98,93 111,134 117,172 6,38 -14,154 -14,154l7 8z"/>
   <path class="fil15" d="M1790 978c0,-1 0,-1 0,-2 -2,-14 -12,-86 -26,-114 -15,-32 -81,-87 -100,-156 -19,-69 -48,-122 -68,-166 -26,-57 -11,-134 10,-159 -1,0 -1,0 -2,0l-7 4c-1,2 -3,5 -5,9 -31,76 -27,267 72,360 98,93 111,134 117,172 2,10 1,26 0,44l9 8z"/>
   <path class="fil14" d="M1732 1058c23,-201 15,-270 -30,-431 -45,-160 247,-526 238,-463 -9,64 -40,221 -121,320 -80,99 -86,179 -71,264 16,85 -3,282 -3,282l-9 36 -4 -8z"/>
   <path class="fil15" d="M1742 974c0,0 0,0 0,0 -1,0 -2,0 -2,-2 0,0 3,-62 1,-113 -1,-51 -14,-138 -23,-168 -8,-27 -17,-118 29,-212 24,-47 42,-77 68,-118 25,-41 57,-91 107,-180 0,-1 1,-2 2,-1 1,0 1,2 1,2 -50,90 -82,140 -107,181 -26,41 -44,71 -67,117 -46,94 -37,184 -29,210 8,31 22,118 23,169 1,51 -1,113 -1,114 0,1 -1,1 -2,1z"/>
   <path class="fil14" d="M1739 1130c14,-134 16,-68 -41,-251 -66,-208 169,-394 208,-318 38,76 83,313 66,305 -17,-7 -129,-228 -132,-219 -4,10 -153,87 -147,165 6,79 63,204 63,204l-1 115 -16 -1z"/>
   <path class="fil15" d="M1741 1125l12 1 1 -109c-3,-8 -57,-128 -63,-204 -5,-62 84,-122 126,-151 10,-7 20,-14 21,-15 0,-1 1,-2 2,-2 3,0 11,12 53,87 30,54 71,128 80,133 1,-2 3,-8 -1,-40 -3,-24 -9,-55 -16,-88 -16,-78 -36,-143 -52,-175 -9,-18 -30,-21 -59,-10 -77,32 -194,172 -145,327 15,49 26,79 34,101 18,50 18,50 11,108 -1,10 -2,22 -4,37zm14 5c0,0 0,0 -1,0l-15 -2c0,0 -1,0 -1,0 -1,-1 -1,-1 -1,-2 2,-15 3,-28 5,-39 6,-57 6,-57 -12,-106 -8,-22 -19,-52 -34,-101 -12,-37 -15,-75 -9,-113 5,-34 17,-67 34,-99 31,-54 79,-101 123,-119 30,-13 54,-9 64,11 16,32 36,98 52,176 9,45 23,123 15,131 -1,2 -2,2 -4,1 -9,-4 -39,-58 -82,-134 -21,-38 -43,-77 -49,-84 -2,2 -8,7 -21,15 -42,28 -129,88 -124,147 6,78 62,202 63,203 0,1 0,1 0,1l-1 112c0,0 -1,1 -1,1 0,1 -1,1 -1,1z"/>
   <path class="fil8" d="M1788 1135l-70 0c-5,0 -9,-2 -10,-6l-23 -177c-1,-8 4,-15 12,-15l112 0c8,0 13,7 12,15l-24 177c0,4 -4,6 -9,6z"/>
   <path class="fil16" d="M1779 1129l-10 0c-4,0 -8,-2 -8,-6l3 -153c0,-7 7,-14 14,-14l15 0c8,0 13,7 12,14l-16 153c0,4 -5,6 -10,6z"/>
   <path class="fil15" d="M1705 882l1 -2c-4,-17 -8,-33 -11,-48 3,29 10,50 10,50z"/>
   <path class="fil15" d="M1705 752c-5,12 -8,24 -9,35 21,-67 136,-129 143,-139l2 -3c-44,-12 -113,49 -136,107z"/>
   <path class="fil15" d="M1972 862c-1,0 -1,0 -2,-1l-20 -85c-17,-67 -37,-150 -60,-187 -4,-6 -20,-14 -43,-13 -32,3 -92,24 -145,145 -1,1 -2,1 -3,1 -1,0 -1,-2 -1,-3 54,-122 116,-144 148,-146 25,-2 43,7 47,14 24,38 43,117 60,188l21 85c0,1 0,2 -1,2 0,0 0,0 -1,0z"/>
   <path class="fil15" d="M1911 751c0,0 0,0 0,0 -1,0 -2,-1 -2,-2 0,-1 8,-71 -10,-144 -1,-1 0,-2 1,-2 1,-1 2,0 2,1 19,74 11,145 11,146 0,1 -1,1 -2,1z"/>
   <path class="fil15" d="M1889 708c0,0 0,0 0,0 -1,0 -2,-1 -2,-2 1,-1 8,-65 3,-118 0,-1 0,-2 2,-2 1,0 2,1 2,2 5,53 -3,118 -3,118 0,1 -1,2 -2,2z"/>
   <path class="fil15" d="M1816 365c-1,0 -2,-1 -2,-2 0,-1 0,-2 1,-2 1,0 56,-27 88,-87 0,-1 2,-1 2,-1 1,1 2,2 1,3 -32,61 -89,88 -89,88 -1,0 -1,1 -1,1z"/>
   <path class="fil15" d="M1775 435c-1,0 -2,-1 -2,-2 0,-1 0,-2 1,-2 1,0 46,-10 100,-54 1,0 2,0 3,1 1,1 0,2 0,2 -55,45 -101,55 -102,55 0,0 0,0 0,0z"/>
   <path class="fil15" d="M1741 502c-1,0 -1,0 -1,0 -1,0 -2,-1 -2,-2 0,-1 1,-2 2,-1 0,0 32,1 82,-36 0,-1 2,-1 2,0 1,1 1,2 0,3 -46,34 -76,36 -83,36z"/>
  </g>
 </g>
</svg>
